<?xml version="1.0" encoding="UTF-8"?>
<svg id="Layer_2" data-name="Layer 2" xmlns="http://www.w3.org/2000/svg" viewBox="0 0 1330 916.63">
  <defs>
    <style>
      .cls-1 {
        fill: #fff;
        stroke-width: 0px;
      }
    </style>
  </defs>
  <g id="Layer_1-2" data-name="Layer 1">
    <g>
      <path class="cls-1" d="M764.97,761.58c-.14-200.32-.04-400.63-.09-600.95,0-34.46,5.23-67.68,21.06-98.78,12.12-23.81,28.93-43.61,52.32-60.86-5.78-.42-9.03-.86-12.28-.86C676.22.1,526.46.24,376.7,0c-25.66-.04-46.86,9.41-65.05,26.66-23.4,22.2-37.09,50.05-46.6,80.4-12.34,39.4-10.39,80-11.87,120.49-.76,20.97,5.47,35.51,20.67,49.75,33.25,31.14,64.83,64.07,96.73,96.62,3.17,3.24,4.42,8.78,5.53,13.49,1.01,4.31-.74,9.6,1.05,13.36,19.19,40.34,38.81,80.48,58.37,120.64,2.69,5.52,7.08,12.03.16,16.11-3.7,2.18-10.9,1.08-15.32-1.03-40.3-19.3-80.3-39.23-120.52-58.7-3.33-1.61-7.63-1.13-11.43-1.84-4.75-.89-10.45-.68-13.97-3.31-6.98-5.2-12.74-12.03-20.09-19.26v302.33c5.06,0,9.55,0,14.04,0,78.52.01,157.04.02,235.56.03,21.17,0,21.44,0,22.66,21.55,1.9,33.69,11.98,64.48,32.02,91.71,28.51,38.71,70.76,55.53,112.23,44.12,33.35-9.18,56.07-31.76,72.56-61.16,15.72-28.02,21.57-58.43,21.55-90.38ZM372.81,277.28c-3.44,0-7.42.93-10.19-.47-3.54-1.8-8.53-5.59-8.46-8.41.09-3.28,4.52-7.13,7.94-9.39,2.17-1.43,5.95-.49,9-.49,99.09,0,198.17,0,297.26.01,3.43,0,7.66-.98,10.11.64,3.29,2.17,6.81,6.27,7.16,9.84.23,2.4-4.43,6.2-7.68,7.75-2.84,1.36-6.75.53-10.19.53-49.35.02-98.7.01-148.05.01-48.97-.01-97.94,0-146.91-.02ZM686.04,355.45c.11,9.61-7.47,8.98-14.05,8.99-29.1.03-58.19.01-87.29.01-29.48-.01-58.96-.06-88.44.02-6.51.02-13.29-.28-13.42-8.61-.14-8.5,6.28-10.14,13.58-10.13,58.57.08,117.15.06,175.72.03,7,0,13.8.8,13.9,9.69ZM678.05,699.83c-2.39,1.33-5.97.62-9.02.62-99.08.02-198.17.03-297.25.03-1.53,0-3.06-.01-4.59.01-6.61.1-13.34-1.14-13.41-9-.07-8.28,6.52-10,13.8-9.99,50.5.09,101,.05,151.49.05,49.73-.02,99.47-.02,149.2,0,3.43,0,7.64-.97,10.11.63,3.31,2.14,6.88,6.2,7.25,9.75.25,2.43-4.39,6.12-7.59,7.9ZM673.39,626.16c-29.85-.1-59.69-.04-89.54-.04-29.08,0-58.16-.06-87.24.05-6.98.03-14-.26-13.67-9.46.29-7.95,6.56-9.09,13.29-9.08,58.93.08,117.85.08,176.78.02,6.72,0,12.8,1.06,13.04,9.24.25,8.52-5.96,9.29-12.67,9.27ZM482.85,530.32c-.13-8.55,6.33-9.99,13.62-9.98,58.57.1,117.14.08,175.71.02,7.02,0,13.82.69,13.87,9.61.05,9.54-7.47,8.94-14.1,8.94-29.48,0-58.95,0-88.43,0-29.09,0-58.19-.05-87.28.04-6.53.02-13.27-.36-13.39-8.65ZM671.97,451.59c-29.1,0-58.19,0-87.29,0-29.48.01-58.96-.04-88.43.06-6.5.02-13.27-.18-13.39-8.56-.12-8.56,6.34-10.07,13.6-10.06,58.57.08,117.15.06,175.72.02,7,0,13.83.73,13.89,9.66.06,9.61-7.5,8.89-14.1,8.89ZM676.22,189.51c-8.22,1.27-16.77.44-25.19.45-43.99,0-87.98,0-131.97,0-48.96,0-97.93,0-146.89,0-3.06,0-6.62.9-9.06-.35-3.59-1.85-8.79-5.19-8.87-8.03-.1-3.25,4.09-7.52,7.47-9.7,2.49-1.6,6.68-.69,10.11-.69,98.69-.02,197.39-.02,296.08,0,3.06,0,6.84-1.01,9.01.41,3.64,2.38,6.25,6.34,9.3,9.63-3.31,2.89-6.32,7.71-9.99,8.28Z"/>
      <path class="cls-1" d="M507.17,775.65H0c.91,28.52,8.05,54.56,22.06,78.24,22.1,37.35,52.63,62.45,98.58,62.47,149.34.06,298.68.04,448.02,0,3.08,0,6.16-.57,11.08-1.05-47.83-35.88-67.99-83.84-72.57-139.66Z"/>
      <path class="cls-1" d="M47.79,218.47c78.75,77.94,157.71,156.1,236.08,233.66,22.55-22.31,46.1-45.62,70.18-69.44-78.49-77.76-157.24-155.78-236.43-234.24-23.19,23.26-46.4,46.53-69.83,70.02Z"/>
      <path class="cls-1" d="M33.86,204.56c23.51-23.56,46.74-46.84,70.65-70.8-14.93-19.66-33.79-29.73-58.08-23.82-20.28,4.93-32.86,18.55-36.97,39.43-4.77,24.23,6.98,40.96,24.4,55.18Z"/>
      <path class="cls-1" d="M407.92,507.17c-16.2-33.26-32.4-66.51-48.97-100.52-17.91,18.33-34.66,35.48-52.34,53.58,33.38,16.36,66.56,32.64,99.75,48.91l1.56-1.97Z"/>
      <path class="cls-1" d="M1032.23,667.42v-133.48c0-44.85-5.58-80.66-16.73-107.44-11.15-26.76-30.26-44.49-57.28-53.18v-2.17c48.66-20.98,72.99-70.9,72.99-149.76v-46.67c0-59.31-13.18-103.27-39.54-131.86C965.32,14.29,923.4,0,865.97,0h-6.96l-13.91,10.26c-21.5,15.85-37.5,34.44-48.89,56.82-13.52,26.56-19.82,56.29-19.81,93.56.02,76.49.02,152.97.02,229.46,0,123.83,0,247.66.08,371.49.02,36.94-7.51,68.35-23.02,96.02-8.37,14.93-17.82,27.39-28.43,37.55,49.89-11.1,87.2-55.59,87.2-108.83v-352.22h38.53c25.68,0,43.75,6.88,54.24,20.62,10.47,13.75,15.72,37.98,15.72,72.71v138.91c0,28.22.67,47.75,2.03,58.6,1.35,10.85,4.06,179.16,8.11,191.46h113.55c-5.42-13.02-8.79-182.94-10.14-196.34-1.36-13.38-2.03-30.93-2.03-52.63ZM919.7,245.26c0,28.95-5.58,49.57-16.73,61.86-11.15,12.31-27.88,18.45-50.19,18.45h-40.55V108.52h50.69c19.59,0,33.96,6.16,43.09,18.45,9.12,12.31,13.69,32.2,13.69,59.69v58.6Z"/>
      <path class="cls-1" d="M1238.55.36v559.68h-2.62L1095.85.36h-150.33c22.2,7.78,40.46,19.36,54.62,34.7,28.26,30.65,42.59,77.64,42.59,139.66v46.67l176.18,695.24h111.09V.36h-91.45Z"/>
    </g>
  </g>
</svg>