<?xml version="1.0" encoding="UTF-8"?>
<svg id="Layer_2" data-name="Layer 2" xmlns="http://www.w3.org/2000/svg" viewBox="0 0 1323.33 187.48">
  <defs>
    <style>
      .cls-1 {
        fill: #fff;
        stroke-width: 0px;
      }
    </style>
  </defs>
  <g id="Layer_1-2" data-name="Layer 1">
    <g>
      <path class="cls-1" d="M207.69,135.43v-26.86c0-9.02-1.12-16.23-3.37-21.62-2.24-5.38-6.09-8.95-11.52-10.7v-.44c9.79-4.22,14.69-14.26,14.69-30.13v-9.39c0-11.93-2.65-20.78-7.96-26.53-5.3-5.75-13.74-8.62-25.29-8.62h-1.4l-2.8,2.06c-4.33,3.19-7.54,6.93-9.84,11.43-2.72,5.34-3.99,11.33-3.99,18.82,0,15.39,0,30.78,0,46.17,0,24.91,0,49.83.02,74.74,0,7.43-1.51,13.75-4.63,19.32-1.68,3-3.59,5.51-5.72,7.56,10.04-2.23,17.54-11.19,17.54-21.9v-70.87h7.75c5.17,0,8.8,1.39,10.91,4.15,2.11,2.77,3.16,7.64,3.16,14.63v27.95c0,5.68.13,9.61.41,11.79.27,2.18.82,36.05,1.63,38.52h22.85c-1.09-2.62-1.77-36.81-2.04-39.5-.27-2.69-.41-6.22-.41-10.59ZM185.04,50.49c0,5.82-1.12,9.97-3.37,12.45-2.24,2.48-5.61,3.71-10.1,3.71h-8.16V22.98h10.2c3.94,0,6.83,1.24,8.67,3.71,1.84,2.48,2.75,6.48,2.75,12.01v11.79Z"/>
      <path class="cls-1" d="M102.04,157.2H0c.18,5.74,1.62,10.98,4.44,15.74,4.45,7.52,10.59,12.56,19.84,12.57,30.05.01,60.09,0,90.14,0,.62,0,1.24-.11,2.23-.21-9.62-7.22-13.68-16.87-14.6-28.1Z"/>
      <path class="cls-1" d="M153.91,154.37c-.03-40.3,0-80.61-.02-120.91,0-6.93,1.05-13.62,4.24-19.88,2.44-4.79,5.82-8.77,10.53-12.24-1.16-.08-1.82-.17-2.47-.17-30.13,0-60.26.02-90.4-.02-5.16,0-9.43,1.89-13.09,5.36-4.71,4.47-7.46,10.07-9.38,16.18-2.48,7.93-2.09,16.1-2.39,24.24-.15,4.22,1.1,7.15,4.16,10.01,6.69,6.27,13.04,12.89,19.46,19.44.64.65.89,1.77,1.11,2.71.2.87-.15,1.93.21,2.69,3.86,8.12,7.81,16.19,11.74,24.27.54,1.11,1.42,2.42.03,3.24-.74.44-2.19.22-3.08-.21-8.11-3.88-16.16-7.89-24.25-11.81-.67-.32-1.53-.23-2.3-.37-.96-.18-2.1-.14-2.81-.67-1.4-1.05-2.56-2.42-4.04-3.87v60.83c1.02,0,1.92,0,2.83,0,15.8,0,31.6,0,47.39,0,4.26,0,4.31,0,4.56,4.34.38,6.78,2.41,12.97,6.44,18.45,5.74,7.79,14.24,11.17,22.58,8.88,6.71-1.85,11.28-6.39,14.6-12.31,3.16-5.64,4.34-11.76,4.34-18.18ZM75.01,56.93c-.69,0-1.49.19-2.05-.09-.71-.36-1.72-1.13-1.7-1.69.02-.66.91-1.43,1.6-1.89.44-.29,1.2-.1,1.81-.1,19.94,0,39.87,0,59.81,0,.69,0,1.54-.2,2.03.13.66.44,1.37,1.26,1.44,1.98.05.48-.89,1.25-1.54,1.56-.57.27-1.36.11-2.05.11-9.93,0-19.86,0-29.79,0-9.85,0-19.71,0-29.56,0ZM138.03,72.66c.02,1.93-1.5,1.81-2.83,1.81-5.85,0-11.71,0-17.56,0-5.93,0-11.86-.01-17.79,0-1.31,0-2.67-.06-2.7-1.73-.03-1.71,1.26-2.04,2.73-2.04,11.79.02,23.57.01,35.36,0,1.41,0,2.78.16,2.8,1.95ZM136.42,141.95c-.48.27-1.2.13-1.81.13-19.94,0-39.87,0-59.81,0-.31,0-.62,0-.92,0-1.33.02-2.68-.23-2.7-1.81-.01-1.67,1.31-2.01,2.78-2.01,10.16.02,20.32,0,30.48,0,10.01,0,20.01,0,30.02,0,.69,0,1.54-.2,2.04.13.67.43,1.39,1.25,1.46,1.96.05.49-.88,1.23-1.53,1.59ZM135.49,127.13c-6.01-.02-12.01,0-18.02,0-5.85,0-11.7-.01-17.55,0-1.4,0-2.82-.05-2.75-1.9.06-1.6,1.32-1.83,2.67-1.83,11.86.02,23.71.02,35.57,0,1.35,0,2.58.21,2.62,1.86.05,1.71-1.2,1.87-2.55,1.86ZM97.15,107.84c-.03-1.72,1.27-2.01,2.74-2.01,11.78.02,23.57.02,35.35,0,1.41,0,2.78.14,2.79,1.93,0,1.92-1.5,1.8-2.84,1.8-5.93,0-11.86,0-17.79,0-5.85,0-11.71,0-17.56,0-1.31,0-2.67-.07-2.69-1.74ZM135.2,92c-5.85,0-11.71,0-17.56,0-5.93,0-11.86,0-17.79.01-1.31,0-2.67-.04-2.69-1.72-.02-1.72,1.28-2.03,2.74-2.02,11.78.02,23.57.01,35.35,0,1.41,0,2.78.15,2.79,1.94.01,1.93-1.51,1.79-2.84,1.79ZM136.06,39.27c-1.65.26-3.37.09-5.07.09-8.85,0-17.7,0-26.55,0-9.85,0-19.7,0-29.56,0-.62,0-1.33.18-1.82-.07-.72-.37-1.77-1.04-1.79-1.62-.02-.65.82-1.51,1.5-1.95.5-.32,1.34-.14,2.03-.14,19.86,0,39.71,0,59.57,0,.62,0,1.38-.2,1.81.08.73.48,1.26,1.28,1.87,1.94-.67.58-1.27,1.55-2.01,1.67Z"/>
      <path class="cls-1" d="M82.07,103.19c-3.26-6.69-6.52-13.38-9.85-20.23-3.6,3.69-6.97,7.14-10.53,10.78,6.72,3.29,13.39,6.57,20.07,9.84.1-.13.21-.26.31-.4Z"/>
      <path class="cls-1" d="M6.81,42.3c4.73-4.74,9.41-9.42,14.22-14.24-3-3.96-6.8-5.98-11.69-4.79-4.08.99-6.61,3.73-7.44,7.93-.96,4.87,1.41,8.24,4.91,11.1Z"/>
      <path class="cls-1" d="M249.2,113.82h-.53L220.49,1.21h-30.25c4.47,1.57,8.14,3.89,10.99,6.98,5.69,6.17,8.57,15.62,8.57,28.1v9.39l35.45,139.88h22.35V1.21h-18.4v112.61Z"/>
      <path class="cls-1" d="M9.61,45.1c15.84,15.68,31.73,31.41,47.5,47.01,4.54-4.49,9.28-9.18,14.12-13.97-15.79-15.65-31.64-31.34-47.57-47.13-4.67,4.68-9.34,9.36-14.05,14.09Z"/>
      <polygon class="cls-1" points="1000.46 111.71 999.94 111.71 972.08 2.6 936.15 2.6 936.15 184.87 961.66 184.87 961.66 51.82 962.18 51.82 996.55 184.87 1025.98 184.87 1025.98 2.6 1000.46 2.6 1000.46 111.71"/>
      <rect class="cls-1" x="861.68" y="80.72" width="57.28" height="26.04"/>
      <polygon class="cls-1" points="871.05 2.6 782.52 2.6 782.52 28.64 812.47 28.64 812.47 184.87 841.11 184.87 841.11 28.64 871.05 28.64 871.05 2.6"/>
      <path class="cls-1" d="M1088.73,0c-14.06,0-24.83,4-32.29,11.98-7.47,7.99-11.2,19.27-11.2,33.85v95.82c0,14.58,3.73,25.87,11.2,33.85,7.46,7.99,18.23,11.98,32.29,11.98s24.82-3.99,32.29-11.98c7.46-7.98,11.2-19.27,11.2-33.85V45.83c0-14.58-3.74-25.86-11.2-33.85-7.47-7.98-18.23-11.98-32.29-11.98ZM1103.57,143.47c0,11.98-4.95,17.97-14.84,17.97s-14.84-5.99-14.84-17.97V44c0-11.98,4.95-17.97,14.84-17.97s14.84,5.99,14.84,17.97v99.47Z"/>
      <polygon class="cls-1" points="1142.89 28.64 1172.83 28.64 1172.83 184.87 1201.47 184.87 1201.47 28.64 1231.42 28.64 1231.42 2.6 1142.89 2.6 1142.89 28.64"/>
      <polygon class="cls-1" points="1323.33 28.64 1323.33 2.6 1245.22 2.6 1245.22 184.87 1323.33 184.87 1323.33 158.83 1273.86 158.83 1273.86 102.85 1313.18 102.85 1313.18 76.81 1273.86 76.81 1273.86 28.64 1323.33 28.64"/>
      <polygon class="cls-1" points="424.24 184.87 502.35 184.87 502.35 158.83 452.88 158.83 452.88 102.85 492.2 102.85 492.2 76.81 452.88 76.81 452.88 28.64 502.35 28.64 502.35 2.6 424.24 2.6 424.24 184.87"/>
      <path class="cls-1" d="M404.45,162.74v-32.03c0-10.76-1.43-19.35-4.3-25.78-2.86-6.42-7.77-10.68-14.71-12.76v-.52c12.5-5.03,18.75-17.01,18.75-35.93v-11.2c0-14.23-3.38-24.78-10.15-31.64-6.77-6.86-17.54-10.29-32.29-10.29h-42.44v182.27h28.64v-78.12h9.89c6.59,0,11.24,1.65,13.93,4.95,2.69,3.3,4.04,9.11,4.04,17.45v33.33c0,6.77.17,11.46.52,14.06.35,2.6,1.04,5.38,2.08,8.33h29.16c-1.39-3.12-2.26-6.29-2.6-9.5-.35-3.21-.52-7.42-.52-12.63ZM375.55,61.45c0,6.95-1.43,11.89-4.3,14.84-2.86,2.95-7.16,4.43-12.89,4.43h-10.41V28.64h13.02c5.03,0,8.72,1.48,11.07,4.43,2.34,2.95,3.52,7.73,3.52,14.32v14.06Z"/>
      <path class="cls-1" d="M568.23,82.8c-9.37-8.16-15.84-15.1-19.4-20.83-3.56-5.73-5.34-11.89-5.34-18.49,0-11.63,4.77-17.45,14.32-17.45,4.69,0,8.24,1.43,10.68,4.3,2.43,2.86,3.64,7.42,3.64,13.67v9.37h27.08v-7.55c0-14.75-3.52-26.08-10.55-33.98-7.03-7.9-17.4-11.85-31.12-11.85s-24.48,3.95-31.77,11.85c-7.29,7.9-10.94,19.05-10.94,33.46,0,10.59,2.34,20.09,7.03,28.51,4.69,8.42,12.93,17.84,24.74,28.25,9.37,8.16,15.79,15.15,19.27,20.96,3.47,5.82,5.21,12.54,5.21,20.18,0,6.42-1.26,11.07-3.78,13.93-2.52,2.86-6.21,4.3-11.07,4.3-9.89,0-14.84-5.9-14.84-17.71v-12.5h-27.08v10.41c0,14.76,3.56,26.08,10.68,33.98,7.12,7.9,17.62,11.85,31.51,11.85s24.78-3.99,32.16-11.98c7.38-7.98,11.07-19.44,11.07-34.37,0-11.46-2.26-21.44-6.77-29.94-4.52-8.5-12.76-17.97-24.74-28.38Z"/>
      <polygon class="cls-1" points="749.45 2.6 720.81 2.6 720.81 184.87 796.58 184.87 796.58 158.83 749.45 158.83 749.45 2.6"/>
      <path class="cls-1" d="M672.9,143.73c0,6.25-1.26,10.77-3.78,13.54-2.52,2.78-6.12,4.17-10.81,4.17s-8.29-1.39-10.81-4.17c-2.52-2.77-3.78-7.29-3.78-13.54V2.6h-28.64v139.05c0,14.76,3.64,26.08,10.94,33.98,7.29,7.9,17.88,11.85,31.77,11.85s24.48-3.95,31.77-11.85c7.29-7.9,10.94-19.22,10.94-33.98V2.6h-27.6v141.13Z"/>
    </g>
  </g>
</svg>